<svg width="21" height="20" viewBox="0 0 21 20" fill="none" xmlns="http://www.w3.org/2000/svg">
<path d="M15.5682 9.0806C16.7307 8.91726 17.6257 7.9206 17.6282 6.7131C17.6282 5.5231 16.7607 4.53643 15.6232 4.34976" stroke="#00100B" stroke-width="1.5" stroke-linecap="round" stroke-linejoin="round"/>
<path d="M17.1023 11.8753C18.2281 12.0436 19.014 12.4378 19.014 13.2503C19.014 13.8094 18.644 14.1728 18.0456 14.4011" stroke="#00100B" stroke-width="1.5" stroke-linecap="round" stroke-linejoin="round"/>
<path fill-rule="evenodd" clip-rule="evenodd" d="M10.5674 12.2198C7.88906 12.2198 5.60156 12.6257 5.60156 14.2465C5.60156 15.8665 7.8749 16.284 10.5674 16.284C13.2457 16.284 15.5324 15.8823 15.5324 14.2607C15.5324 12.639 13.2599 12.2198 10.5674 12.2198Z" stroke="#00100B" stroke-width="1.5" stroke-linecap="round" stroke-linejoin="round"/>
<path fill-rule="evenodd" clip-rule="evenodd" d="M10.5674 9.9066C12.3249 9.9066 13.7499 8.48243 13.7499 6.7241C13.7499 4.9666 12.3249 3.5416 10.5674 3.5416C8.80991 3.5416 7.38491 4.9666 7.38491 6.7241C7.37824 8.47576 8.79241 9.90076 10.5441 9.9066H10.5674Z" stroke="#00100B" stroke-width="1.5" stroke-linecap="round" stroke-linejoin="round"/>
<path d="M5.56586 9.0806C4.40253 8.91726 3.50836 7.9206 3.50586 6.7131C3.50586 5.5231 4.37336 4.53643 5.51086 4.34976" stroke="#00100B" stroke-width="1.5" stroke-linecap="round" stroke-linejoin="round"/>
<path d="M4.03178 11.8753C2.90595 12.0436 2.12012 12.4378 2.12012 13.2503C2.12012 13.8094 2.49012 14.1728 3.08845 14.4011" stroke="#00100B" stroke-width="1.5" stroke-linecap="round" stroke-linejoin="round"/>
</svg>
